<svg xmlns="http://www.w3.org/2000/svg" viewBox="0 0 149.84 151.58"><defs><style>.cls-1{isolation:isolate;}.cls-2{fill:#007234;}.cls-3{fill:#1d1d1d;}</style></defs><g id="Highlight" class="cls-1"><g id="Highlight-2" data-name="Highlight"><path class="cls-2" d="M236.72,195.41a42.08,42.08,0,1,1-42.09,42.08,42.13,42.13,0,0,1,42.09-42.08m0-2a44.08,44.08,0,1,0,44.08,44.08,44.08,44.08,0,0,0-44.08-44.08Z" transform="translate(-161.39 -160.43)"/></g></g><g id="Chamois"><g id="Ellipse_1_copy_2" data-name="Ellipse 1 copy 2"><path class="cls-3" d="M300.91,225a2.48,2.48,0,1,0,2.48,2.47A2.48,2.48,0,0,0,300.91,225Z" transform="translate(-161.39 -160.43)"/></g><g id="Ellipse_1_copy_3" data-name="Ellipse 1 copy 3"><path class="cls-3" d="M171.8,243.39a2.48,2.48,0,1,0,2.48,2.48A2.48,2.48,0,0,0,171.8,243.39Z" transform="translate(-161.39 -160.43)"/></g><g id="CHAMOIS_CHAMOIS_CHAMOIS_" data-name="CHAMOIS CHAMOIS  CHAMOIS"><path class="cls-3" d="M167.93,219.13a6.51,6.51,0,0,0-2.68,1.93,6.27,6.27,0,0,0-1.34,3.05,6.05,6.05,0,0,0,.2,2.85,6.84,6.84,0,0,0,1.36,2.39,8.25,8.25,0,0,0,2.25,1.77,9.84,9.84,0,0,0,6.21.93,7.12,7.12,0,0,0,4.47-2.88,5.64,5.64,0,0,0,1-2.6,6.38,6.38,0,0,0-.42-3.71,7.8,7.8,0,0,0-2.84-3.1l1.43-2.11a8,8,0,0,1,2.43,2.1,8.79,8.79,0,0,1,1.63,3.23,9.52,9.52,0,0,1-1.14,7.51,9.35,9.35,0,0,1-2.63,2.65,9.54,9.54,0,0,1-3.62,1.49,11.76,11.76,0,0,1-4.1.06,11.34,11.34,0,0,1-3.85-1.32,10,10,0,0,1-2.93-2.45,9.35,9.35,0,0,1-1.7-3.32,8.8,8.8,0,0,1-.2-3.87,8.66,8.66,0,0,1,1-3,9.28,9.28,0,0,1,1.56-2,9.06,9.06,0,0,1,1.78-1.33l.22-1.37,2.3.36Z" transform="translate(-161.39 -160.43)"/><path class="cls-3" d="M177.1,189.26l3.74-5.24,1.83,1.31-1.1,1.53,12.48,8.91,1.1-1.53,1.83,1.31-3.75,5.24-1.83-1.31,1.16-1.62-5.8-4.14-6.67,9.34,5.8,4.14,1.15-1.62,1.84,1.31-3.75,5.24-1.83-1.3,1.1-1.54-12.48-8.91-1.1,1.54L169,200.61l3.75-5.24,1.83,1.3-1.16,1.62,4.89,3.49,6.67-9.34L180.08,189l-1.15,1.62Z" transform="translate(-161.39 -160.43)"/><path class="cls-3" d="M212.41,183.3l1.46-.77-3.49-3.24-6.75,3.57.76,4.69,1.8-1,1.05,2-5.69,3-1.05-2,1.53-.81-2.78-18.42,3.42-1.81,13.68,12.65,1.75-.94,1.06,2-5.69,3Zm-9.13-2.71,5.41-2.87-6.88-6.39Z" transform="translate(-161.39 -160.43)"/><path class="cls-3" d="M225.07,178l1.89,0,.3-15.08-1.89,0,0-2.5,6.28.13,6,17.24,6.71-17,6,.12-.05,2.49-1.87,0-.3,15.08,1.87,0,0,2.25-6.44-.12,0-2.25,2.12,0,.3-15.23-7.28,17.34-2.23,0-6.68-17.65-.3,15.26,2,0,0,2.25-6.44-.13Z" transform="translate(-161.39 -160.43)"/><path class="cls-3" d="M263.5,188a9,9,0,0,1-2.89-2.52,9.55,9.55,0,0,1-1.69-7.3,11.86,11.86,0,0,1,1.37-3.84,11.51,11.51,0,0,1,2.6-3.16,10.14,10.14,0,0,1,3.32-1.89,9.4,9.4,0,0,1,3.7-.43,9.05,9.05,0,0,1,3.74,1.19,9.27,9.27,0,0,1,3,2.6,9.41,9.41,0,0,1,1.54,3.4,9.93,9.93,0,0,1,.08,3.81,12,12,0,0,1-4,7,10.11,10.11,0,0,1-3.32,1.88,9.06,9.06,0,0,1-7.45-.75Zm1.2-2.12a6.16,6.16,0,0,0,2.77.83,6.6,6.6,0,0,0,2.72-.44,7.67,7.67,0,0,0,2.43-1.5,9.3,9.3,0,0,0,1.91-2.38,9.5,9.5,0,0,0,1.08-3,7.67,7.67,0,0,0,0-2.95,6.84,6.84,0,0,0-1.13-2.5,6.31,6.31,0,0,0-2-1.78,6.12,6.12,0,0,0-2.77-.83,6.64,6.64,0,0,0-2.73.43,8,8,0,0,0-2.43,1.51,9.92,9.92,0,0,0-3,5.48,7.09,7.09,0,0,0,.06,2.77A8,8,0,0,0,262.6,184,5.86,5.86,0,0,0,264.7,185.89Z" transform="translate(-161.39 -160.43)"/><path class="cls-3" d="M291.45,184.46l4.14,4.8-1.71,1.48-1.23-1.43-11.61,10,1.24,1.42-1.71,1.47-4.14-4.79,1.71-1.47,1.23,1.42,11.6-10-1.23-1.43Z" transform="translate(-161.39 -160.43)"/><path class="cls-3" d="M303.68,210.85a3.2,3.2,0,0,0,.44-1.2,4,4,0,0,0,0-1.2,4.4,4.4,0,0,0-.33-1.17,6.16,6.16,0,0,0-.91-1.51,3.68,3.68,0,0,0-1.06-.88,2.65,2.65,0,0,0-1.14-.32,2.46,2.46,0,0,0-1.1.22,2.81,2.81,0,0,0-1.16.84,2.52,2.52,0,0,0-.46,1.05,4,4,0,0,0-.05,1.15c0,.4.07.78.1,1.15l.27,2.77a13.56,13.56,0,0,1,.05,2.27,5.9,5.9,0,0,1-.44,1.86,4.63,4.63,0,0,1-1,1.47,6,6,0,0,1-1.71,1.09,5.15,5.15,0,0,1-2.29.45,5.65,5.65,0,0,1-2.23-.56,6.88,6.88,0,0,1-2-1.49,8.39,8.39,0,0,1-1.5-2.34,8.71,8.71,0,0,1-.73-2.54,6.18,6.18,0,0,1,.12-2.05,4.86,4.86,0,0,1,.75-1.61,7.08,7.08,0,0,1,1.12-1.25l-.39-.91,2.06-.9,1.32,3a4.82,4.82,0,0,0-1.76,1.11,2.73,2.73,0,0,0-.58,1.18,4.07,4.07,0,0,0,0,1.44,5.92,5.92,0,0,0,.48,1.62,5.74,5.74,0,0,0,.83,1.38,3.73,3.73,0,0,0,1.05.88,2.61,2.61,0,0,0,1.19.32,3.05,3.05,0,0,0,1.29-.27,2.57,2.57,0,0,0,1.11-.85,3.5,3.5,0,0,0,.53-1.16,5.2,5.2,0,0,0,.13-1.31c0-.45-.05-.87-.09-1.27l-.4-3a8.39,8.39,0,0,1,0-1.87,5.3,5.3,0,0,1,.46-1.66,4.87,4.87,0,0,1,1-1.39,6.1,6.1,0,0,1,1.7-1.06,5,5,0,0,1,2.13-.45,5.14,5.14,0,0,1,2.12.5,6.36,6.36,0,0,1,1.92,1.47,9,9,0,0,1,1.53,2.45,7.55,7.55,0,0,1,.56,1.9,6.17,6.17,0,0,1,0,1.77,5.64,5.64,0,0,1-.48,1.61,6.75,6.75,0,0,1-.9,1.41l.39.9-2.06.9-1.28-2.94A2.94,2.94,0,0,0,303.68,210.85Z" transform="translate(-161.39 -160.43)"/><path class="cls-3" d="M304.62,253.89a6.53,6.53,0,0,0,2.7-1.91,6.32,6.32,0,0,0,1.37-3,6,6,0,0,0-.17-2.84,6.88,6.88,0,0,0-1.34-2.41,8.11,8.11,0,0,0-2.24-1.79,9,9,0,0,0-2.86-1,9.14,9.14,0,0,0-3.34,0,7.49,7.49,0,0,0-2.58,1,7.79,7.79,0,0,0-1.91,1.81,5.9,5.9,0,0,0-1.08,2.59,6.43,6.43,0,0,0,.39,3.72,7.75,7.75,0,0,0,2.81,3.13l-1.45,2.09a8.06,8.06,0,0,1-2.41-2.12,8.93,8.93,0,0,1-1.61-3.25,9.3,9.3,0,0,1-.15-4,9.14,9.14,0,0,1,1.37-3.55,9.61,9.61,0,0,1,6.29-4.07,11.82,11.82,0,0,1,4.11,0,11.28,11.28,0,0,1,3.83,1.35,10,10,0,0,1,2.9,2.48,9.17,9.17,0,0,1,1.67,3.33,9,9,0,0,1,.17,3.88,8.81,8.81,0,0,1-1,3,9.28,9.28,0,0,1-1.59,2,9.41,9.41,0,0,1-1.79,1.31l-.23,1.37-2.3-.39Z" transform="translate(-161.39 -160.43)"/><path class="cls-3" d="M295.18,283.64l-3.79,5.2-1.82-1.32,1.11-1.53-12.39-9-1.11,1.52-1.82-1.32,3.79-5.21,1.82,1.33-1.17,1.6,5.76,4.2,6.76-9.28-5.76-4.19-1.17,1.6-1.82-1.32,3.79-5.21,1.82,1.33-1.11,1.52,12.39,9,1.11-1.53,1.82,1.33-3.79,5.2-1.82-1.32,1.17-1.61-4.85-3.53-6.76,9.28,4.85,3.53,1.17-1.61Z" transform="translate(-161.39 -160.43)"/><path class="cls-3" d="M259.78,289.28l-1.46.76,3.46,3.27,6.78-3.5-.71-4.71L266,286l-1-2,5.72-3,1,2-1.54.8,2.6,18.45-3.43,1.78-13.56-12.79-1.77.92-1-2,5.72-3Zm9.12,2.8-5.45,2.81,6.82,6.46Z" transform="translate(-161.39 -160.43)"/><path class="cls-3" d="M247.08,294.44l-1.88-.06-.44,15.08,1.88.06-.07,2.49-6.28-.18-5.79-17.3-6.88,16.93-6-.18.07-2.49,1.87,0,.45-15.07-1.88-.06.07-2.25,6.44.19-.07,2.25-2.12-.06-.44,15.22,7.44-17.27,2.23.07,6.51,17.71.45-15.26-2-.06.06-2.25,6.44.19Z" transform="translate(-161.39 -160.43)"/><path class="cls-3" d="M209.67,284.59a9,9,0,0,1,2.92,2.49,9.57,9.57,0,0,1,1.76,7.29,11.93,11.93,0,0,1-1.34,3.85,11.68,11.68,0,0,1-2.56,3.19,10,10,0,0,1-3.31,1.91,9.19,9.19,0,0,1-3.69.47,9,9,0,0,1-3.76-1.16,9.07,9.07,0,0,1-4.56-5.95,10.12,10.12,0,0,1-.12-3.81,11.94,11.94,0,0,1,3.9-7,10.19,10.19,0,0,1,3.31-1.92,9.09,9.09,0,0,1,7.45.68Zm-1.18,2.13a6.11,6.11,0,0,0-2.78-.8,6.59,6.59,0,0,0-2.71.46,7.72,7.72,0,0,0-2.42,1.53,9.14,9.14,0,0,0-1.88,2.4,9.41,9.41,0,0,0-1,3,7.28,7.28,0,0,0,.06,2.95,6.56,6.56,0,0,0,1.15,2.48,6.15,6.15,0,0,0,2,1.76,6,6,0,0,0,2.79.81,6.64,6.64,0,0,0,2.72-.46,7.84,7.84,0,0,0,2.42-1.53,9.89,9.89,0,0,0,3-5.51,7.06,7.06,0,0,0-.09-2.77,8,8,0,0,0-1.07-2.41A5.91,5.91,0,0,0,208.49,286.72Z" transform="translate(-161.39 -160.43)"/><path class="cls-3" d="M181.75,288.4l-4.18-4.76,1.7-1.5,1.25,1.42L192,273.45,190.78,272l1.69-1.48,4.18,4.75L195,276.79l-1.24-1.42-11.51,10.12,1.24,1.41Z" transform="translate(-161.39 -160.43)"/><path class="cls-3" d="M169.29,262.16a3.47,3.47,0,0,0-.43,1.21,4,4,0,0,0,0,1.2,4.64,4.64,0,0,0,.34,1.17,6,6,0,0,0,.92,1.49,3.88,3.88,0,0,0,1.07.88,2.69,2.69,0,0,0,1.14.3,2.63,2.63,0,0,0,1.11-.23,2.75,2.75,0,0,0,1.14-.85,2.56,2.56,0,0,0,.46-1.06,3.68,3.68,0,0,0,0-1.15c0-.4-.08-.78-.11-1.15l-.29-2.76a11.83,11.83,0,0,1-.07-2.27,5.4,5.4,0,0,1,.42-1.86,4.5,4.5,0,0,1,1-1.48,5.82,5.82,0,0,1,1.7-1.11A5,5,0,0,1,180,254a5.5,5.5,0,0,1,2.24.54,6.8,6.8,0,0,1,2,1.47,8,8,0,0,1,1.52,2.32,8.71,8.71,0,0,1,.76,2.53,6,6,0,0,1-.1,2.05,5.09,5.09,0,0,1-.73,1.62,7.1,7.1,0,0,1-1.11,1.26l.4.91-2.05.92-1.35-3a5,5,0,0,0,1.75-1.12,2.78,2.78,0,0,0,.56-1.19,3.9,3.9,0,0,0,0-1.45,6.88,6.88,0,0,0-.5-1.61,5.82,5.82,0,0,0-.85-1.37,3.53,3.53,0,0,0-1-.87,2.81,2.81,0,0,0-1.2-.31A3.09,3.09,0,0,0,179,257a2.54,2.54,0,0,0-1.1.86,3.24,3.24,0,0,0-.51,1.17,4.71,4.71,0,0,0-.12,1.3c0,.45,0,.87.1,1.27l.43,2.95a9.07,9.07,0,0,1,0,1.87,5,5,0,0,1-.45,1.66,4.58,4.58,0,0,1-1,1.4,6,6,0,0,1-1.68,1.08,5.15,5.15,0,0,1-2.13.47,5,5,0,0,1-2.12-.48,6.52,6.52,0,0,1-1.94-1.45,9.21,9.21,0,0,1-1.55-2.44,7.56,7.56,0,0,1-.58-1.89,6.19,6.19,0,0,1,0-1.77,5.61,5.61,0,0,1,.46-1.61,6.52,6.52,0,0,1,.89-1.42l-.4-.9,2-.92,1.32,2.93A3,3,0,0,0,169.29,262.16Z" transform="translate(-161.39 -160.43)"/></g></g></svg>