<svg xmlns="http://www.w3.org/2000/svg" viewBox="0 0 149.41 149.47"><defs><style>.cls-1{isolation:isolate;}.cls-2{fill:#007234;}.cls-3{fill:#1d1d1d;}</style></defs><g id="Highlight" class="cls-1"><g id="Highlight-2" data-name="Highlight"><path class="cls-2" d="M236.72,195.41a42.08,42.08,0,1,1-42.09,42.08,42.13,42.13,0,0,1,42.09-42.08m0-2a44.08,44.08,0,1,0,44.08,44.08,44.08,44.08,0,0,0-44.08-44.08Z" transform="translate(-161.78 -161.5)"/></g></g><g id="Leathers"><g id="Ellipse_1" data-name="Ellipse 1"><path class="cls-3" d="M301.66,224.72a2.48,2.48,0,1,0,2.47,2.48A2.48,2.48,0,0,0,301.66,224.72Z" transform="translate(-161.78 -161.5)"/></g><g id="Ellipse_1_copy" data-name="Ellipse 1 copy"><path class="cls-3" d="M172.26,243.38a2.48,2.48,0,1,0,2.48,2.47A2.47,2.47,0,0,0,172.26,243.38Z" transform="translate(-161.78 -161.5)"/></g><g id="LEATHERS_LEATHERS" data-name="LEATHERS LEATHERS"><path class="cls-3" d="M311.19,239.32l-.75,6-2.13-.27.24-1.86-14.38-1.78-.8,6.41a.94.94,0,0,0,.05.4,1.41,1.41,0,0,0,.19.39,1.26,1.26,0,0,0,.31.3.77.77,0,0,0,.37.14l2.35.3-.29,2.33-5.51-.69,1.74-14,2.11.26-.22,1.77,14.37,1.78.22-1.76Z" transform="translate(-161.78 -161.5)"/><path class="cls-3" d="M305.85,264.18l-6,12-4.74-2.38,1.14-2.26,2.83,1.42,3-6-5.36-2.7-2.52,5-1.9-.95,2.52-5-5.68-2.85-3,6,2.83,1.42-1.14,2.27-4.73-2.38,6-12,1.9.95-.8,1.59,12.94,6.51.8-1.59Z" transform="translate(-161.78 -161.5)"/><path class="cls-3" d="M273,281.33l-1.16,1.05,4,2.15,5.34-4.85-1.79-4.12-1.43,1.3-1.43-1.58,4.5-4.09,1.43,1.58-1.21,1.1L288,290.09l-2.7,2.46-15.49-8.39-1.39,1.26L267,283.85l4.5-4.09Zm9,.35-4.28,3.89,7.8,4.24Z" transform="translate(-161.78 -161.5)"/><path class="cls-3" d="M261.73,288.46l-1.59.66,5.61,13.47L269.7,301l-1.13-2.7,2.34-1,1.91,4.57-15.43,6.42-1.9-4.57,2.34-1,1.12,2.69,4.56-1.9-5.61-13.47-1.78.74-.82-2,5.61-2.33Z" transform="translate(-161.78 -161.5)"/><path class="cls-3" d="M231.18,310.66l-6.08-.13.05-2.13,1.78,0,.33-14.5-1.77,0,0-2.12,6.08.14-.05,2.12-1.87,0-.16,6.74,10.84.25.15-6.74-1.88,0,.05-2.13,6.08.14-.05,2.13L243,294.3l-.34,14.5,1.78,0,0,2.13-6.08-.14.05-2.13,1.88,0,.13-5.67-10.84-.25-.13,5.67,1.88.05Z" transform="translate(-161.78 -161.5)"/><path class="cls-3" d="M211.42,306.72l-12.24-5.52,2.19-4.84,2.31,1-1.31,2.89,6.1,2.75,2.47-5.47-5.13-2.31.88-1.94,5.12,2.32,2.62-5.8-6.09-2.75L207,290l-2.31-1.05,2.18-4.82,12.24,5.52-.88,1.94-1.62-.73-6,13.2,1.62.73Z" transform="translate(-161.78 -161.5)"/><path class="cls-3" d="M189,294.2l-5.53-5.5a8,8,0,0,1-1.41-1.86,5.29,5.29,0,0,1-.61-2,4.36,4.36,0,0,1,.26-2A5.46,5.46,0,0,1,183,281a3.94,3.94,0,0,1,1.16-.8,4.52,4.52,0,0,1,1.4-.41,5.31,5.31,0,0,1,1.49,0,5,5,0,0,1,1.46.45,2.54,2.54,0,0,1-.17-.72,3.47,3.47,0,0,1,0-.85,5,5,0,0,1,.23-.95,5.49,5.49,0,0,1,.44-1l2.14-3.63L190,272l1.64-1.68,2.59,2.57-3,5a4.45,4.45,0,0,0-.76,2.42,3,3,0,0,0,1,2l1.71,1.69,4.62-4.65-1.33-1.32,1.5-1.51,4.31,4.29-1.5,1.51-1.26-1.26-10.21,10.28,1.26,1.25Zm-1.47-4.48,4.16-4.19L189.18,283a4.6,4.6,0,0,0-1.05-.78,2.75,2.75,0,0,0-1.11-.32,2.63,2.63,0,0,0-1.13.18,3.28,3.28,0,0,0-1.07.74,2.81,2.81,0,0,0-.94,2.14,3.82,3.82,0,0,0,1.35,2.43Z" transform="translate(-161.78 -161.5)"/><path class="cls-3" d="M170.6,263.24a3.16,3.16,0,0,0-.39,1.14,4.3,4.3,0,0,0,0,1.13,4.42,4.42,0,0,0,.35,1.1,5.53,5.53,0,0,0,.89,1.4,3.39,3.39,0,0,0,1,.8,2.4,2.4,0,0,0,1.08.27,2.47,2.47,0,0,0,1-.23,2.68,2.68,0,0,0,1.07-.82,2.53,2.53,0,0,0,.42-1,4,4,0,0,0,0-1.09c0-.38-.09-.74-.13-1.08l-.32-2.61a12.4,12.4,0,0,1-.1-2.14,5.46,5.46,0,0,1,.37-1.77,4.22,4.22,0,0,1,.93-1.41,5.48,5.48,0,0,1,1.58-1.08,4.84,4.84,0,0,1,2.15-.48,5.2,5.2,0,0,1,2.12.47,6.12,6.12,0,0,1,1.9,1.36,7.58,7.58,0,0,1,1.48,2.16,8.17,8.17,0,0,1,.75,2.38,5.57,5.57,0,0,1-.06,1.93,4.81,4.81,0,0,1-.66,1.55,7.15,7.15,0,0,1-1,1.21l.39.85-1.92.9-1.32-2.82a4.79,4.79,0,0,0,1.63-1.08,2.68,2.68,0,0,0,.51-1.14,3.66,3.66,0,0,0,0-1.36,5.9,5.9,0,0,0-.49-1.51,5.41,5.41,0,0,0-.83-1.29,3.27,3.27,0,0,0-1-.8,2.51,2.51,0,0,0-1.13-.27,2.94,2.94,0,0,0-1.22.29,2.44,2.44,0,0,0-1,.83,3.21,3.21,0,0,0-.47,1.11,5.15,5.15,0,0,0-.09,1.24c0,.42.06.82.11,1.2l.46,2.77a7.6,7.6,0,0,1,.06,1.77,4.89,4.89,0,0,1-.39,1.58,4.43,4.43,0,0,1-.94,1.33,5.57,5.57,0,0,1-1.58,1.05,4.74,4.74,0,0,1-2,.48,4.79,4.79,0,0,1-2-.42,6,6,0,0,1-1.85-1.34,8.31,8.31,0,0,1-1.51-2.27,7.27,7.27,0,0,1-.57-1.77,5.9,5.9,0,0,1,0-1.67,5.24,5.24,0,0,1,.41-1.53,6.47,6.47,0,0,1,.82-1.36l-.39-.84,1.92-.91,1.29,2.74A2.75,2.75,0,0,0,170.6,263.24Z" transform="translate(-161.78 -161.5)"/><path class="cls-3" d="M161.78,232.13l.84-6,2.12.29-.26,1.86,14.35,2,.89-6.4a.84.84,0,0,0,0-.41,1.18,1.18,0,0,0-.19-.39,1.07,1.07,0,0,0-.3-.3.91.91,0,0,0-.37-.15l-2.34-.33.32-2.32,5.5.76-1.94,14-2.11-.3.24-1.76-14.34-2-.25,1.76Z" transform="translate(-161.78 -161.5)"/><path class="cls-3" d="M167.49,207.33l6.22-11.89,4.7,2.45-1.17,2.25-2.81-1.47-3.09,5.93,5.31,2.78,2.61-5,1.88,1-2.6,5,5.64,2.95,3.09-5.93-2.8-1.47,1.17-2.24,4.69,2.45L184.12,216l-1.89-1,.83-1.58-12.84-6.7-.83,1.57Z" transform="translate(-161.78 -161.5)"/><path class="cls-3" d="M200.65,190.69l1.17-1-3.93-2.21-5.4,4.77,1.73,4.15,1.44-1.28,1.41,1.6-4.56,4-1.41-1.6,1.23-1.08-6.63-16.32,2.74-2.41,15.36,8.61,1.41-1.24,1.41,1.6-4.56,4Zm-9-.48,4.34-3.82L188.26,182Z" transform="translate(-161.78 -161.5)"/><path class="cls-3" d="M212,183.73l1.6-.64-5.41-13.56-4,1.59,1.08,2.71-2.35.94-1.83-4.6L216.63,164l1.83,4.59-2.35.94L215,166.81l-4.6,1.83,5.41,13.56,1.79-.72.79,2-5.64,2.25Z" transform="translate(-161.78 -161.5)"/><path class="cls-3" d="M242.81,162l6.07.22-.08,2.13-1.78-.07-.53,14.49,1.77.07-.07,2.12-6.08-.22.08-2.13,1.88.07.25-6.74-10.84-.4-.25,6.74,1.88.07-.08,2.12-6.08-.22.08-2.13,1.78.07.54-14.49-1.78-.07.08-2.12,6.08.22-.08,2.13-1.88-.07-.21,5.67,10.83.41.21-5.68-1.87-.07Z" transform="translate(-161.78 -161.5)"/><path class="cls-3" d="M262.57,166.23l12.15,5.71-2.26,4.81-2.3-1.08,1.35-2.87L265.46,170l-2.55,5.43,5.09,2.39-.91,1.92L262,177.31l-2.7,5.76,6.05,2.84,1.35-2.86,2.29,1.07-2.25,4.79-12.15-5.71.9-1.92,1.61.75,6.17-13.1-1.61-.76Z" transform="translate(-161.78 -161.5)"/><path class="cls-3" d="M284.74,179.08l5.45,5.58a7.83,7.83,0,0,1,1.37,1.88,5.17,5.17,0,0,1,.59,2,4.37,4.37,0,0,1-.29,2,5.4,5.4,0,0,1-1.27,1.84,4,4,0,0,1-1.17.79,4.55,4.55,0,0,1-1.4.38,5.4,5.4,0,0,1-1.5,0,4.93,4.93,0,0,1-1.45-.47,2.54,2.54,0,0,1,.16.72,3.07,3.07,0,0,1,0,.85,4.77,4.77,0,0,1-.23.94,5.28,5.28,0,0,1-.46,1l-2.2,3.6,1.13,1.15-1.66,1.66-2.55-2.6,3.11-5a4.48,4.48,0,0,0,.8-2.41,3.06,3.06,0,0,0-1-2l-1.69-1.72-4.69,4.58,1.31,1.34-1.52,1.49-4.25-4.35,1.52-1.49,1.25,1.27,10.36-10.12-1.24-1.27Zm1.4,4.51-4.22,4.12,2.52,2.57a4.22,4.22,0,0,0,1,.8,2.84,2.84,0,0,0,1.11.33,2.57,2.57,0,0,0,1.12-.16,3.31,3.31,0,0,0,1.09-.73,2.84,2.84,0,0,0,1-2.12,3.85,3.85,0,0,0-1.31-2.45Z" transform="translate(-161.78 -161.5)"/><path class="cls-3" d="M302.71,210.31a3.19,3.19,0,0,0,.4-1.14,4,4,0,0,0,0-1.14,4.23,4.23,0,0,0-.33-1.1,5.6,5.6,0,0,0-.87-1.4,3.62,3.62,0,0,0-1-.83,2.48,2.48,0,0,0-1.08-.28,2.34,2.34,0,0,0-1,.22,2.54,2.54,0,0,0-1.08.8,2.51,2.51,0,0,0-.43,1,4,4,0,0,0,0,1.09c0,.38.08.74.11,1.09l.28,2.61a12.18,12.18,0,0,1,.07,2.14,5.34,5.34,0,0,1-.39,1.76,4.4,4.4,0,0,1-.95,1.4,5.42,5.42,0,0,1-1.6,1.05,4.88,4.88,0,0,1-2.16.45,5.11,5.11,0,0,1-2.12-.5,6.37,6.37,0,0,1-1.87-1.38,8,8,0,0,1-1.45-2.19,8.33,8.33,0,0,1-.71-2.39,5.09,5.09,0,0,1,.09-1.93,4.58,4.58,0,0,1,.68-1.54,7.1,7.1,0,0,1,1.05-1.19l-.38-.86,1.93-.87,1.29,2.84a4.62,4.62,0,0,0-1.66,1.06,2.6,2.6,0,0,0-.52,1.13,3.63,3.63,0,0,0,0,1.36,6,6,0,0,0,.48,1.52,5.63,5.63,0,0,0,.8,1.3,3.57,3.57,0,0,0,1,.81,2.67,2.67,0,0,0,1.13.29,3,3,0,0,0,1.22-.27,2.49,2.49,0,0,0,1-.82,3.1,3.1,0,0,0,.48-1.1,4.7,4.7,0,0,0,.11-1.24q0-.63-.09-1.2l-.42-2.78a7.53,7.53,0,0,1,0-1.77,4.85,4.85,0,0,1,.41-1.57,4.64,4.64,0,0,1,1-1.32,5.9,5.9,0,0,1,1.59-1,5,5,0,0,1,2-.44,4.47,4.47,0,0,1,2,.45,5.89,5.89,0,0,1,1.83,1.36,8.37,8.37,0,0,1,1.48,2.3,7,7,0,0,1,.54,1.78,5.87,5.87,0,0,1,0,1.67A5.31,5.31,0,0,1,305,211a6.2,6.2,0,0,1-.83,1.35l.38.84-1.94.88-1.25-2.76A2.79,2.79,0,0,0,302.71,210.31Z" transform="translate(-161.78 -161.5)"/></g></g></svg>